<svg id="Group_295" data-name="Group 295" xmlns="http://www.w3.org/2000/svg" width="118" height="157.333" viewBox="0 0 118 157.333">
  <path id="Path_588" data-name="Path 588" d="M26.458,131.552c0,.246,4.056-1.659,10.724-12.353C35.123,121.134,28.24,126.727,26.458,131.552ZM55.282,64.285c-.891,0-.922,9.5.615,14.412C57.617,75.624,57.863,64.285,55.282,64.285Zm24.645,43.666c11.4,4.855,13.152,2.766,13.152,2.766C94.339,109.888,92.31,107.06,79.927,107.952ZM55.374,93.2a141.8,141.8,0,0,1-8.727,19.267c5.623-2.151,11.984-5.285,19.329-6.73A39.806,39.806,0,0,1,55.374,93.2ZM83.583,39.333a4.917,4.917,0,0,1-4.917-4.917V0H7.375A7.357,7.357,0,0,0,0,7.338v142.62a7.357,7.357,0,0,0,7.338,7.375H110.625A7.357,7.357,0,0,0,118,150V39.333Zm6.73,78.175c-5.193,0-13-2.366-19.667-5.992-7.652,1.26-16.348,4.517-24.276,7.129C38.565,132.1,33.1,137.636,27.595,137.636a9.549,9.549,0,0,1-6.607-3.073c-5.869-7.221,8.42-16.624,16.747-20.9.031,0,.031-.031.061-.031A288.557,288.557,0,0,0,50.334,87.271c-2.612-10.11-4.026-18.038-2.489-23.661C49.5,57.556,61.09,56.665,62.534,65.7c1.659,5.408-.522,14.043-1.905,19.728C63.517,93.048,67.6,98.21,73.75,101.959c5.931-.768,18.345-1.967,22.617,2.213,3.534,3.5,2.919,13.336-6.054,13.336Z" transform="translate(0 0)" fill="rgba(235,0,0,0.3)"/>
  <path id="Path_589" data-name="Path 589" d="M160.058,32.266,129.974,2.151A7.375,7.375,0,0,0,124.75,0h-1.874V34.417a4.917,4.917,0,0,0,4.917,4.917h34.417V37.459a7.344,7.344,0,0,0-2.151-5.193Zm-42.1,69.694c-6.146-3.749-10.233-8.911-13.121-16.532,1.383-5.685,3.565-14.32,1.905-19.728-1.444-9.034-13.029-8.143-14.689-2.09-1.536,5.623-.123,13.552,2.489,23.661a288.555,288.555,0,0,1-12.538,26.366c-.031,0-.031.031-.061.031-8.328,4.271-22.617,13.674-16.747,20.9a9.549,9.549,0,0,0,6.607,3.073c5.5,0,10.97-5.531,18.776-18.991,7.928-2.612,16.624-5.869,24.276-7.129,6.668,3.626,14.473,5.992,19.667,5.992,8.973,0,9.587-9.833,6.054-13.336C136.3,99.993,123.89,101.191,117.959,101.959ZM70.667,131.552c1.782-4.824,8.666-10.417,10.724-12.353C74.723,129.892,70.667,131.8,70.667,131.552ZM99.491,64.285c2.581,0,2.335,11.339.615,14.412C98.569,73.781,98.6,64.285,99.491,64.285Zm-8.635,48.183A141.795,141.795,0,0,0,99.583,93.2a39.806,39.806,0,0,0,10.6,12.538c-7.344,1.444-13.705,4.579-19.329,6.73Zm46.432-1.752s-1.752,2.09-13.152-2.766C136.52,107.06,138.548,109.887,137.288,110.717Z" transform="translate(-44.209 0)" fill="rgba(235,0,0,0.75)"/>
</svg>
