<svg xmlns="http://www.w3.org/2000/svg" width="158.147" height="35.971" viewBox="0 0 158.147 35.971">
  <path id="Path_55" data-name="Path 55" d="M25.772-61.8h8.316l-7.2-12.425a11.154,11.154,0,0,0,6.237-9.815,11.576,11.576,0,0,0-11.6-11.6H7.98V-61.8h7.736v-11.12H19.39ZM15.716-88.387h5.8a4.1,4.1,0,0,1,3.868,4.351,4.1,4.1,0,0,1-3.868,4.351h-5.8ZM42.742-70.982H59.906a14.053,14.053,0,0,0,.29-2.9c0-7.3-5.222-12.764-12.28-12.764A12.4,12.4,0,0,0,35.055-73.883c0,7.2,5.125,12.764,13.392,12.764,4.593,0,8.171-1.692,10.54-4.98l-5.8-3.336A6.312,6.312,0,0,1,48.544-67.6C45.885-67.6,43.661-68.468,42.742-70.982ZM42.6-76.4a4.991,4.991,0,0,1,5.27-3.82,4.977,4.977,0,0,1,5.125,3.82ZM81.614-85.97V-83.7a9.08,9.08,0,0,0-7.2-2.949c-6.334,0-11.555,5.56-11.555,12.764s5.222,12.764,11.555,12.764a9.08,9.08,0,0,0,7.2-2.949V-61.8h7.252V-85.97ZM75.861-67.984a5.521,5.521,0,0,1-5.753-5.9,5.521,5.521,0,0,1,5.753-5.9,5.521,5.521,0,0,1,5.753,5.9A5.521,5.521,0,0,1,75.861-67.984ZM94.185-61.8h7.252V-97.09H94.185Zm12.571,0h7.252V-97.09h-7.252Zm24.174.677a12.671,12.671,0,0,0,12.812-12.764A12.671,12.671,0,0,0,130.93-86.647a12.671,12.671,0,0,0-12.812,12.764A12.671,12.671,0,0,0,130.93-61.119Zm0-7.059a5.422,5.422,0,0,1-5.56-5.705,5.422,5.422,0,0,1,5.56-5.705,5.422,5.422,0,0,1,5.56,5.705A5.422,5.422,0,0,1,130.93-68.178Zm23.3-10.733c0-.87.774-1.354,2.031-1.354a3.51,3.51,0,0,1,3.239,2.127l6.189-3.336a10.577,10.577,0,0,0-9.428-5.173c-5.028,0-9.476,2.659-9.476,7.929,0,8.364,11.894,6.962,11.894,9.621,0,.967-.87,1.5-2.611,1.5a3.97,3.97,0,0,1-4.11-2.853l-6.285,3.578c1.886,3.916,5.56,5.753,10.395,5.753,5.222,0,10.056-2.369,10.056-7.929C166.127-77.992,154.233-76.155,154.233-78.911Z" transform="translate(-7.98 97.09)" fill="#150578"/>
</svg>
