<svg width="357" height="80" viewBox="0 0 358 80" fill="none" xmlns="http://www.w3.org/2000/svg" stroke="#150578" stroke-width="3">
  <path d="M12.773,0H31.005L15.211-27.242A24.454,24.454,0,0,0,28.885-48.76,25.379,25.379,0,0,0,3.445-74.2h-29.68V0h16.96V-24.38h8.056ZM-9.275-58.3H3.445c4.664,0,8.48,4.134,8.48,9.54s-3.816,9.54-8.48,9.54H-9.275Z" transform="translate(27.735 75.7)" />
  <path d="M78.1474 57.86H115.777C116.201 55.846 116.413 53.726 116.413 51.5C116.413 35.494 104.965 23.516 89.4894 23.516C72.7414 23.516 61.2934 35.706 61.2934 51.5C61.2934 67.294 72.5294 79.484 90.6554 79.484C100.725 79.484 108.569 75.774 113.763 68.566L101.043 61.252C98.9234 63.584 95.2134 65.28 90.8674 65.28C85.0374 65.28 80.1614 63.372 78.1474 57.86ZM77.8294 45.988C79.3134 40.582 83.3414 37.614 89.3834 37.614C94.1534 37.614 98.9234 39.84 100.619 45.988H77.8294Z" />
  <path d="M164.982 25V29.982C161.484 25.954 156.29 23.516 149.188 23.516C135.302 23.516 123.854 35.706 123.854 51.5C123.854 67.294 135.302 79.484 149.188 79.484C156.29 79.484 161.484 77.046 164.982 73.018V78H180.882V25H164.982ZM152.368 64.432C145.054 64.432 139.754 59.45 139.754 51.5C139.754 43.55 145.054 38.568 152.368 38.568C159.682 38.568 164.982 43.55 164.982 51.5C164.982 59.45 159.682 64.432 152.368 64.432Z" />
  <path d="M194.137 78H210.037V0.619995H194.137V78Z" />
  <path d="M223.262 78H239.162V0.619995H223.262V78Z" />
  <path d="M277.827 79.484C293.409 79.484 305.917 67.294 305.917 51.5C305.917 35.706 293.409 23.516 277.827 23.516C262.245 23.516 249.737 35.706 249.737 51.5C249.737 67.294 262.245 79.484 277.827 79.484ZM277.827 64.008C270.937 64.008 265.637 59.026 265.637 51.5C265.637 43.974 270.937 38.992 277.827 38.992C284.717 38.992 290.017 43.974 290.017 51.5C290.017 59.026 284.717 64.008 277.827 64.008Z" />
  <path d="M330.518 40.476C330.518 38.568 332.214 37.508 334.97 37.508C338.468 37.508 340.588 39.416 342.072 42.172L355.64 34.858C351.188 27.332 343.556 23.516 334.97 23.516C323.946 23.516 314.194 29.346 314.194 40.9C314.194 59.238 340.27 56.164 340.27 61.994C340.27 64.114 338.362 65.28 334.546 65.28C329.882 65.28 326.914 63.054 325.536 59.026L311.756 66.87C315.89 75.456 323.946 79.484 334.546 79.484C345.994 79.484 356.594 74.29 356.594 62.1C356.594 42.49 330.518 46.518 330.518 40.476Z" />
</svg>
