<svg xmlns="http://www.w3.org/2000/svg" xmlns:xlink="http://www.w3.org/1999/xlink" width="305.461" height="111.019" viewBox="0 0 305.461 111.019">
  <defs>
    <linearGradient id="linear-gradient" x1="0.5" y1="1" x2="0.5" gradientUnits="objectBoundingBox">
      <stop offset="0" stop-color="#21daf1"/>
      <stop offset="1" stop-color="#7dfef5"/>
    </linearGradient>
    <filter id="Path_513" x="52.252" y="31.639" width="78.974" height="31.035" filterUnits="userSpaceOnUse">
      <feOffset dy="3" input="SourceAlpha"/>
      <feGaussianBlur stdDeviation="3" result="blur"/>
      <feFlood flood-opacity="0.161"/>
      <feComposite operator="in" in2="blur"/>
      <feComposite in="SourceGraphic"/>
    </filter>
    <linearGradient id="linear-gradient-2" x1="0.5" y1="1" x2="0.5" gradientUnits="objectBoundingBox">
      <stop offset="0" stop-color="#7dfef5"/>
      <stop offset="1" stop-color="#21daf1"/>
    </linearGradient>
    <filter id="Rectangle_658" x="38.458" y="31.639" width="32.3" height="78.5" filterUnits="userSpaceOnUse">
      <feOffset dy="3" input="SourceAlpha"/>
      <feGaussianBlur stdDeviation="3" result="blur-2"/>
      <feFlood flood-opacity="0.161"/>
      <feComposite operator="in" in2="blur-2"/>
      <feComposite in="SourceGraphic"/>
    </filter>
    <linearGradient id="linear-gradient-3" x1="0.5" x2="0.5" y2="1" gradientUnits="objectBoundingBox">
      <stop offset="0" stop-color="#20d4eb"/>
      <stop offset="1" stop-color="#7dfef5"/>
    </linearGradient>
    <filter id="Path_512" x="59.26" y="69.892" width="43.527" height="40.136" filterUnits="userSpaceOnUse">
      <feOffset dy="3" input="SourceAlpha"/>
      <feGaussianBlur stdDeviation="3" result="blur-3"/>
      <feFlood flood-opacity="0.161"/>
      <feComposite operator="in" in2="blur-3"/>
      <feComposite in="SourceGraphic"/>
    </filter>
    <linearGradient id="linear-gradient-4" x1="0.5" y1="0" x2="0.5" y2="1" xlink:href="#linear-gradient-2"/>
    <filter id="Path_514" x="42.798" y="0" width="88.392" height="62.03" filterUnits="userSpaceOnUse">
      <feOffset dy="3" input="SourceAlpha"/>
      <feGaussianBlur stdDeviation="3" result="blur-4"/>
      <feFlood flood-opacity="0.161"/>
      <feComposite operator="in" in2="blur-4"/>
      <feComposite in="SourceGraphic"/>
    </filter>
    <linearGradient id="linear-gradient-5" y1="0" y2="1" xlink:href="#linear-gradient"/>
    <filter id="Path_515" x="0" y="0.003" width="89.118" height="64.7" filterUnits="userSpaceOnUse">
      <feOffset dy="3" input="SourceAlpha"/>
      <feGaussianBlur stdDeviation="3" result="blur-5"/>
      <feFlood flood-opacity="0.161"/>
      <feComposite operator="in" in2="blur-5"/>
      <feComposite in="SourceGraphic"/>
    </filter>
    <filter id="Path_591" x="88.358" y="38.378" width="217.103" height="72.641" filterUnits="userSpaceOnUse">
      <feOffset dy="3" input="SourceAlpha"/>
      <feGaussianBlur stdDeviation="3" result="blur-6"/>
      <feFlood flood-opacity="0.161"/>
      <feComposite operator="in" in2="blur-6"/>
      <feComposite in="SourceGraphic"/>
    </filter>
  </defs>
  <g id="Group_303" data-name="Group 303" transform="translate(-1468.742 -933.961)">
    <g id="Group_274" data-name="Group 274" transform="translate(1478.797 947.192)">
      <path id="Path_516" data-name="Path 516" d="M10.729-.824l13.428.293L12.341-22.1A19.84,19.84,0,0,0,23.435-39.56,20.59,20.59,0,0,0,2.795-60.2l-23.359.9L-20.578-.868-7.525,0V-19.78H-.989ZM-7.525-47.3H2.795c3.784,0,6.88,3.354,6.88,7.74s-3.1,7.74-6.88,7.74H-7.525Z" transform="translate(59.203 84.807)" fill="#21daf1"/>
      <g transform="matrix(1, 0, 0, 1, -10.06, -13.23)" filter="url(#Path_513)">
        <path id="Path_513-2" data-name="Path 513" d="M0,28.574,12.4,0l.633,60.95L0,60.974Z" transform="translate(122.23 37.64) rotate(90)" fill="url(#linear-gradient)"/>
      </g>
      <g transform="matrix(1, 0, 0, 1, -10.06, -13.23)" filter="url(#Rectangle_658)">
        <path id="Rectangle_658-2" data-name="Rectangle 658" d="M3,0H14.3a0,0,0,0,1,0,0V60.5a0,0,0,0,1,0,0H3a3,3,0,0,1-3-3V3A3,3,0,0,1,3,0Z" transform="translate(47.46 37.64)" fill="url(#linear-gradient-2)"/>
      </g>
      <g transform="matrix(1, 0, 0, 1, -10.06, -13.23)" filter="url(#Path_512)">
        <path id="Path_512-2" data-name="Path 512" d="M-13.991,50.231-.645,47.87,10.75,67.591s1.482,2.414.375,2.414H-.072a5.676,5.676,0,0,1-2.161-.455A3.609,3.609,0,0,1-3.6,68.205Z" transform="translate(82.25 28.02)" fill="url(#linear-gradient-3)"/>
      </g>
      <g transform="matrix(1, 0, 0, 1, -10.06, -13.23)" filter="url(#Path_514)">
        <path id="Path_514-2" data-name="Path 514" d="M-46.033,30.39l28.259-3.569L24.359,70.85-4.123,58.514Z" transform="translate(97.83 -20.82)" fill="url(#linear-gradient-4)"/>
      </g>
      <g transform="matrix(1, 0, 0, 1, -10.06, -13.23)" filter="url(#Path_515)">
        <path id="Path_515-2" data-name="Path 515" d="M22.833,26.832H2.393a11.039,11.039,0,0,0-4.153.637,12.221,12.221,0,0,0-3.582,2.443L-48.286,73.523h13.714Z" transform="translate(57.29 -20.82)" fill="url(#linear-gradient-5)"/>
      </g>
    </g>
    <g transform="matrix(1, 0, 0, 1, 1468.74, 933.96)" filter="url(#Path_591)">
      <path id="Path_591-2" data-name="Path 591" d="M13.777-11.441H39.85a21.348,21.348,0,0,0,.441-4.407c0-11.09-7.932-19.389-18.654-19.389C10.032-35.236,2.1-26.79,2.1-15.848S9.885,3.541,22.444,3.541c6.977,0,12.412-2.57,16.011-7.565L29.641-9.091A9.589,9.589,0,0,1,22.591-6.3C18.551-6.3,15.173-7.622,13.777-11.441Zm-.22-8.226c1.028-3.746,3.819-5.8,8.005-5.8a7.56,7.56,0,0,1,7.785,5.8ZM72.825-34.208v3.452c-2.424-2.791-6.022-4.48-10.943-4.48-9.621,0-17.553,8.446-17.553,19.389S52.261,3.541,61.882,3.541c4.921,0,8.519-1.689,10.943-4.48V2.513H83.842V-34.208ZM64.086-6.887c-5.068,0-8.74-3.452-8.74-8.96s3.672-8.96,8.74-8.96,8.74,3.452,8.74,8.96S69.153-6.887,64.086-6.887Zm27.835,9.4h11.016V-51.1H91.92Zm19.1,0h11.016V-51.1H111.016Zm36.721,1.028A19.248,19.248,0,0,0,167.2-15.848a19.248,19.248,0,0,0-19.462-19.389,19.248,19.248,0,0,0-19.462,19.389A19.248,19.248,0,0,0,147.737,3.541Zm0-10.723a8.236,8.236,0,0,1-8.446-8.666,8.236,8.236,0,0,1,8.446-8.666,8.236,8.236,0,0,1,8.446,8.666A8.236,8.236,0,0,1,147.737-7.181Zm35.4-16.3c0-1.322,1.175-2.056,3.085-2.056a5.332,5.332,0,0,1,4.921,3.231l9.4-5.068a16.067,16.067,0,0,0-14.321-7.858c-7.638,0-14.395,4.039-14.395,12.045,0,12.706,18.067,10.576,18.067,14.615,0,1.469-1.322,2.277-3.966,2.277a6.031,6.031,0,0,1-6.243-4.333L170.137-5.2c2.864,5.949,8.446,8.74,15.79,8.74,7.932,0,15.276-3.6,15.276-12.045C201.2-22.09,183.136-19.3,183.136-23.486Z" transform="translate(95.26 95.48)" fill="#21daf1"/>
    </g>
  </g>
</svg>
