<svg xmlns="http://www.w3.org/2000/svg" width="29.364" height="29.364" viewBox="0 0 29.364 29.364">
  <path id="Path_487" data-name="Path 487" d="M23.858,14.682H20.041a1.688,1.688,0,0,1-1.688-1.688v-.543a9.745,9.745,0,0,1,1.231-4.458A5.436,5.436,0,0,0,20.1,4.528,5.539,5.539,0,0,0,15.671.086,5.8,5.8,0,0,0,14.682,0,5.506,5.506,0,0,0,9.176,5.506a5.391,5.391,0,0,0,.5,2.269,12.489,12.489,0,0,1,1.337,5.215v0a1.688,1.688,0,0,1-1.688,1.688H5.506A5.506,5.506,0,0,0,0,20.188v2.753a.917.917,0,0,0,.918.918h.918v3.671a1.835,1.835,0,0,0,1.835,1.835H25.694a1.835,1.835,0,0,0,1.835-1.835V23.858h.918a.917.917,0,0,0,.918-.918V20.188A5.506,5.506,0,0,0,23.858,14.682ZM2.753,20.188a2.756,2.756,0,0,1,2.753-2.753H9.323a4.447,4.447,0,0,0,4.441-4.445,14.961,14.961,0,0,0-1.591-6.37,2.637,2.637,0,0,1-.244-1.115,2.756,2.756,0,0,1,2.753-2.753A3.062,3.062,0,0,1,15.2,2.8,2.779,2.779,0,0,1,17.39,5a2.676,2.676,0,0,1-.252,1.727A12.341,12.341,0,0,0,15.6,12.451v.543a4.446,4.446,0,0,0,4.441,4.441h3.817a2.756,2.756,0,0,1,2.753,2.753v.918H2.753Zm22.023,6.423H4.588V23.858H24.776Z" fill="#150578"/>
</svg>
